<svg id="svg" version="1.1" xmlns="http://www.w3.org/2000/svg" xmlns:xlink="http://www.w3.org/1999/xlink" width="400" height="300" viewBox="0, 0, 400,300"><g id="svgg"><path id="path0" d="M137.778 271.556 L 137.778 276.667 136.866 275.755 C 131.354 270.243,122.448 275.269,122.452 283.889 C 122.455 292.819,131.808 298.005,136.991 291.951 L 137.778 291.031 137.778 292.516 L 137.778 294.000 140.111 294.000 L 142.444 294.000 142.444 280.222 L 142.444 266.444 140.111 266.444 L 137.778 266.444 137.778 271.556 M243.802 267.463 C 235.720 269.636,231.833 279.320,235.773 287.461 C 239.477 295.113,249.658 296.813,256.118 290.859 C 257.324 289.747,257.331 289.639,256.268 288.601 C 255.221 287.578,255.348 287.564,253.786 288.864 C 246.738 294.730,237.438 289.995,237.468 280.556 C 237.498 271.404,247.144 266.776,253.862 272.689 C 255.053 273.737,254.962 273.748,256.175 272.420 C 257.333 271.152,257.372 271.356,255.722 270.048 C 252.383 267.400,247.762 266.398,243.802 267.463 M11.156 267.879 C 9.681 271.115,0.000 293.571,0.000 293.755 C 0.000 293.910,0.561 294.000,1.520 294.000 L 3.041 294.000 4.486 290.611 L 5.931 287.222 12.771 287.222 L 19.611 287.222 21.048 290.611 L 22.486 294.000 24.150 294.000 C 25.288 294.000,25.788 293.921,25.731 293.749 C 25.685 293.611,23.102 287.614,19.990 280.421 L 14.333 267.345 12.869 267.339 C 11.527 267.334,11.384 267.379,11.156 267.879 M40.222 280.764 L 40.222 294.000 46.833 293.999 C 53.787 293.997,55.113 293.885,57.129 293.129 C 62.613 291.070,63.126 283.375,57.954 280.755 L 56.851 280.196 57.592 279.615 C 61.562 276.506,60.784 270.442,56.139 268.296 L 54.778 267.667 47.500 267.597 L 40.222 267.528 40.222 280.764 M15.535 277.638 C 17.013 281.105,18.222 284.005,18.222 284.082 C 18.222 284.159,15.772 284.222,12.778 284.222 C 9.783 284.222,7.333 284.166,7.333 284.096 C 7.333 283.932,12.725 271.333,12.795 271.333 C 12.824 271.333,14.058 274.170,15.535 277.638 M53.615 272.305 C 54.832 272.910,55.385 273.798,55.385 275.150 C 55.385 277.712,53.829 278.512,48.611 278.632 L 44.889 278.718 44.889 275.230 L 44.889 271.742 48.833 271.815 C 52.143 271.877,52.913 271.956,53.615 272.305 M74.048 273.976 C 72.525 274.502,71.287 275.596,70.398 277.203 L 70.019 277.889 70.009 275.944 L 70.000 274.000 67.667 274.000 L 65.333 274.000 65.333 284.000 L 65.333 294.000 67.646 294.000 L 69.958 294.000 70.048 288.944 C 70.182 281.394,71.742 278.667,75.928 278.667 L 76.667 278.667 76.667 276.111 L 76.667 273.556 75.944 273.563 C 75.547 273.567,74.694 273.753,74.048 273.976 M85.801 273.907 C 75.627 276.643,75.913 292.015,86.178 294.194 C 93.471 295.743,99.584 289.964,98.650 282.404 C 97.894 276.282,91.845 272.282,85.801 273.907 M153.532 273.878 C 146.196 275.901,143.684 286.016,149.153 291.512 C 152.959 295.339,159.441 295.424,163.087 291.695 L 164.062 290.698 163.385 289.849 C 163.013 289.382,162.403 288.711,162.031 288.357 L 161.354 287.714 160.525 288.442 C 156.224 292.218,150.675 289.499,150.921 283.737 C 151.151 278.368,155.916 275.996,159.920 279.257 C 160.943 280.090,161.208 280.215,161.432 279.967 C 161.581 279.802,162.245 279.081,162.907 278.364 L 164.111 277.062 163.016 276.070 C 160.557 273.844,156.802 272.976,153.532 273.878 M173.357 273.907 C 163.394 276.586,163.464 291.502,173.452 294.104 C 181.674 296.245,188.650 288.264,185.688 280.105 C 183.903 275.187,178.568 272.506,173.357 273.907 M198.418 273.849 C 197.195 274.307,196.068 275.066,195.451 275.849 L 194.894 276.556 194.891 275.278 L 194.889 274.000 192.556 274.000 L 190.222 274.000 190.222 284.000 L 190.222 294.000 192.556 294.000 L 194.889 294.000 194.889 287.660 C 194.889 280.873,194.964 280.329,196.066 279.149 C 197.831 277.258,200.776 277.681,201.944 279.993 C 202.429 280.953,202.444 281.183,202.444 287.492 L 202.444 294.000 204.778 294.000 L 207.111 294.000 207.111 287.806 C 207.111 279.364,207.670 278.000,211.129 278.000 C 214.312 278.000,214.757 279.136,214.851 287.500 L 214.924 294.000 217.142 294.000 L 219.359 294.000 219.291 286.167 L 219.222 278.333 218.598 277.061 C 216.596 272.984,210.961 272.295,207.337 275.685 C 206.720 276.262,206.184 276.694,206.146 276.645 C 206.108 276.596,205.810 276.197,205.484 275.758 C 204.162 273.980,200.625 273.024,198.418 273.849 M107.111 273.919 C 106.414 274.051,104.559 274.644,103.625 275.032 L 102.917 275.327 103.488 277.053 C 104.211 279.241,104.140 279.184,105.503 278.666 C 110.161 276.896,113.777 278.048,114.300 281.467 L 114.439 282.378 113.275 282.050 C 108.813 280.794,103.651 282.128,102.093 284.941 C 98.480 291.461,107.054 297.474,113.236 292.755 L 114.222 292.003 114.222 293.001 L 114.222 294.000 116.556 294.000 L 118.889 294.000 118.887 288.278 C 118.884 278.195,118.206 276.059,114.472 274.376 C 113.456 273.918,108.683 273.622,107.111 273.919 M267.055 274.229 C 261.922 275.513,258.630 281.559,260.087 287.029 C 262.656 296.678,275.940 296.939,278.887 287.399 C 281.275 279.668,274.675 272.323,267.055 274.229 M290.665 274.208 C 289.576 274.539,288.742 275.091,287.822 276.089 L 286.889 277.101 286.889 275.773 L 286.889 274.444 285.333 274.444 L 283.778 274.444 283.778 284.222 L 283.778 294.000 285.333 294.000 L 286.889 294.000 286.889 287.706 C 286.889 278.900,287.833 276.889,291.968 276.889 C 295.801 276.889,296.523 278.517,296.628 287.389 L 296.706 294.000 298.131 294.000 L 299.556 294.000 299.556 287.818 C 299.556 278.674,300.608 276.606,305.100 276.931 C 308.621 277.186,309.202 278.620,309.292 287.278 L 309.363 294.000 310.806 294.000 L 312.249 294.000 312.180 286.500 C 312.102 278.006,312.090 277.941,310.221 275.914 C 307.637 273.109,302.590 273.343,299.731 276.398 L 298.694 277.507 298.133 276.661 C 296.704 274.501,293.337 273.395,290.665 274.208 M325.183 274.307 C 323.847 274.743,322.874 275.399,321.699 276.656 L 320.667 277.759 320.667 276.102 L 320.667 274.444 319.111 274.444 L 317.556 274.444 317.556 287.222 L 317.556 300.000 319.111 300.000 L 320.667 300.000 320.667 295.396 L 320.667 290.793 321.833 291.941 C 326.794 296.824,334.766 294.076,336.355 286.936 C 338.098 279.100,331.914 272.110,325.183 274.307 M346.391 274.233 C 344.872 274.410,343.053 274.920,341.947 275.479 L 341.338 275.787 341.769 276.919 C 342.330 278.396,342.170 278.345,344.036 277.645 C 348.740 275.880,352.665 277.284,353.348 280.976 C 353.646 282.589,353.759 282.521,351.446 282.118 C 344.015 280.822,339.407 283.477,339.835 288.808 C 340.280 294.348,348.353 296.430,352.722 292.132 L 353.556 291.312 353.556 292.656 L 353.556 294.000 355.019 294.000 L 356.482 294.000 356.391 286.944 C 356.287 278.922,356.188 278.337,354.640 276.577 C 353.263 275.013,350.210 273.825,348.111 274.036 C 347.989 274.048,347.215 274.137,346.391 274.233 M368.170 274.432 C 367.000 274.889,365.922 275.719,365.167 276.742 L 364.667 277.420 364.667 275.932 L 364.667 274.444 363.222 274.444 L 361.778 274.444 361.778 284.222 L 361.778 294.000 363.222 294.000 L 364.667 294.000 364.667 287.929 C 364.667 279.080,365.741 276.889,370.077 276.889 C 374.367 276.889,375.106 278.430,375.109 287.389 L 375.111 294.000 376.667 294.000 L 378.222 294.000 378.222 287.269 C 378.222 278.778,377.878 277.275,375.493 275.343 C 373.875 274.033,370.322 273.591,368.170 274.432 M381.111 274.514 C 381.111 274.562,383.008 278.926,385.326 284.211 L 389.541 293.821 389.013 294.855 C 387.864 297.107,386.308 297.776,383.983 297.016 C 383.354 296.810,382.817 296.672,382.789 296.710 C 382.630 296.925,382.000 298.721,382.000 298.961 C 382.000 299.466,383.996 300.002,385.874 300.001 C 388.651 299.999,390.124 299.049,391.471 296.392 C 392.091 295.168,400.000 275.013,400.000 274.656 C 400.000 274.540,399.307 274.444,398.460 274.444 L 396.921 274.444 396.440 275.722 C 395.828 277.345,391.583 288.791,391.282 289.628 C 391.074 290.206,390.790 289.624,387.766 282.406 L 384.476 274.556 382.793 274.491 C 381.868 274.455,381.111 274.465,381.111 274.514 M271.965 277.240 C 278.966 280.165,276.795 291.937,269.333 291.504 C 261.470 291.047,260.489 278.803,268.163 276.898 C 269.183 276.645,270.913 276.800,271.965 277.240 M329.618 277.392 C 334.015 279.239,334.945 286.677,331.192 289.980 C 328.509 292.342,324.472 291.928,322.203 289.060 C 317.606 283.246,323.072 274.644,329.618 277.392 M90.915 278.398 C 95.320 280.700,95.237 287.585,90.778 289.693 C 87.171 291.398,83.252 288.761,82.939 284.419 C 82.591 279.579,86.920 276.311,90.915 278.398 M134.778 278.395 C 138.966 280.680,138.699 287.826,134.351 289.801 C 130.902 291.367,127.111 288.350,127.111 284.038 C 127.111 279.298,131.080 276.377,134.778 278.395 M178.222 278.240 C 180.243 279.155,181.533 281.077,181.724 283.456 C 182.315 290.826,172.796 292.865,170.745 285.807 C 169.305 280.855,173.846 276.259,178.222 278.240 M54.981 283.333 C 57.612 284.690,57.499 287.738,54.766 289.106 C 53.730 289.625,53.414 289.662,49.278 289.743 L 44.889 289.830 44.889 286.228 L 44.889 282.627 49.396 282.702 C 53.692 282.774,53.953 282.804,54.981 283.333 M351.883 284.590 L 353.556 284.957 353.556 285.936 C 353.556 292.289,343.344 294.503,342.943 288.237 C 342.731 284.918,346.458 283.398,351.883 284.590 M113.333 285.172 C 114.299 285.452,114.336 285.494,114.402 286.411 C 114.702 290.529,107.639 292.692,106.080 288.959 C 104.786 285.863,108.684 283.828,113.333 285.172 " stroke="none" fill="#cc0c2c" fill-rule="evenodd"></path><path id="path1" d="M132.556 0.140 C 128.154 0.585,124.978 1.002,122.444 1.465 C 84.931 8.320,60.974 37.010,57.765 78.928 C 54.681 119.195,72.006 152.411,103.008 165.666 C 125.011 175.074,154.960 174.287,175.830 163.751 C 177.403 162.958,177.589 163.417,174.387 160.190 C 165.849 151.587,160.222 138.647,160.222 127.618 C 160.222 126.458,160.202 126.457,158.920 127.526 C 154.237 131.429,148.467 133.087,140.498 132.820 C 119.376 132.113,110.626 116.425,111.407 80.667 C 112.076 50.067,120.510 37.403,140.667 36.734 C 155.922 36.227,165.643 43.702,166.949 56.944 L 167.206 59.556 190.064 59.556 L 212.921 59.556 212.775 58.278 C 209.059 25.840,187.913 5.416,153.111 0.650 C 149.813 0.198,135.487 -0.157,132.556 0.140 M237.333 0.139 C 220.215 1.593,207.790 5.057,196.611 11.492 C 194.536 12.687,194.517 12.423,196.816 14.423 C 204.942 21.494,212.354 33.602,215.363 44.721 C 215.965 46.945,215.973 46.952,216.718 45.833 C 223.431 35.757,246.127 33.228,256.563 41.394 C 261.942 45.602,264.474 51.578,264.870 61.000 C 265.090 66.221,265.492 65.672,261.312 65.861 C 203.570 68.466,172.932 83.257,166.576 111.596 C 158.923 145.720,182.980 172.994,219.989 172.150 C 240.622 171.680,253.697 165.855,265.608 151.826 C 266.468 150.814,267.200 150.015,267.235 150.050 C 267.270 150.085,267.414 151.763,267.555 153.779 C 267.861 158.172,268.477 163.196,269.129 166.611 L 269.606 169.111 292.914 169.111 C 309.048 169.111,316.222 169.039,316.222 168.878 C 316.222 168.749,315.927 167.524,315.566 166.156 C 314.782 163.185,314.133 159.785,313.627 156.000 C 313.293 153.500,313.241 148.032,313.111 101.333 C 312.959 47.214,312.974 48.007,311.984 41.778 C 308.156 17.702,290.902 4.012,260.000 0.532 C 256.954 0.189,240.171 -0.102,237.333 0.139 M265.038 98.500 C 264.738 116.120,262.514 123.434,255.002 131.500 C 242.374 145.061,217.648 143.338,211.646 128.480 C 203.892 109.283,223.356 93.763,259.333 90.456 C 260.739 90.327,262.239 90.187,262.667 90.146 C 263.094 90.105,263.835 90.055,264.313 90.036 L 265.182 90.000 265.038 98.500 M330.638 151.669 C 322.129 154.388,323.278 168.017,332.106 169.079 C 336.387 169.595,339.850 167.825,341.516 164.271 C 342.348 162.495,342.390 158.377,341.596 156.400 C 340.022 152.479,334.951 150.290,330.638 151.669 M337.071 153.442 C 342.490 156.401,341.938 165.502,336.220 167.457 C 329.801 169.652,324.399 163.619,326.895 157.042 C 328.368 153.160,333.336 151.403,337.071 153.442 M330.444 159.889 L 330.444 164.889 331.333 164.889 L 332.222 164.889 332.222 162.889 C 332.222 160.171,332.545 160.188,334.547 163.012 C 336.005 165.069,336.073 165.131,336.748 164.989 C 337.907 164.745,337.891 164.553,336.559 162.652 L 335.282 160.829 335.969 160.292 C 338.886 158.009,336.702 154.908,332.167 154.894 L 330.444 154.889 330.444 159.889 M334.815 157.236 C 335.601 158.310,334.800 159.333,333.173 159.333 L 332.222 159.333 332.222 157.972 L 332.222 156.610 333.371 156.720 C 334.131 156.793,334.619 156.968,334.815 157.236 M288.222 200.889 L 288.222 204.222 291.778 204.222 L 295.333 204.222 295.333 200.889 L 295.333 197.556 291.778 197.556 L 288.222 197.556 288.222 200.889 M127.333 218.333 L 127.333 238.667 130.889 238.667 L 134.444 238.667 134.444 228.128 L 134.444 217.590 135.382 216.788 C 137.917 214.618,141.544 213.944,142.976 215.376 C 144.187 216.587,144.220 216.929,144.221 228.278 L 144.222 238.667 147.787 238.667 L 151.352 238.667 151.282 227.056 C 151.204 214.204,151.213 214.294,149.720 212.094 C 147.014 208.105,141.140 207.670,136.105 211.086 L 134.444 212.213 134.444 205.107 L 134.444 198.000 130.889 198.000 L 127.333 198.000 127.333 218.333 M217.556 218.333 L 217.556 238.667 221.000 238.667 L 224.444 238.667 224.444 218.333 L 224.444 198.000 221.000 198.000 L 217.556 198.000 217.556 218.333 M54.000 204.556 L 54.000 209.333 52.000 209.333 L 50.000 209.333 50.000 212.222 L 50.000 215.111 52.000 215.111 L 54.000 215.111 54.000 224.515 C 54.000 236.240,54.167 236.948,57.292 238.487 C 58.378 239.022,64.465 239.256,66.056 238.824 L 66.667 238.658 66.667 235.748 L 66.667 232.838 65.611 233.029 C 60.972 233.867,61.111 234.158,61.111 223.642 L 61.111 215.111 63.889 215.111 L 66.667 215.111 66.667 212.222 L 66.667 209.333 63.889 209.333 L 61.111 209.333 61.111 204.556 L 61.111 199.778 57.556 199.778 L 54.000 199.778 54.000 204.556 M80.667 208.896 C 71.221 210.040,66.590 222.927,71.942 233.174 C 75.965 240.876,88.752 241.261,93.965 233.837 L 94.470 233.118 92.624 231.938 C 91.609 231.289,90.432 230.545,90.010 230.284 L 89.243 229.809 87.740 231.227 C 83.096 235.608,77.848 233.241,77.013 226.389 L 76.857 225.111 85.685 225.111 L 94.512 225.111 94.364 222.389 C 93.853 213.025,88.675 207.925,80.667 208.896 M109.111 208.903 C 100.734 209.877,96.000 219.974,99.142 230.162 C 102.366 240.613,115.568 242.618,121.538 233.562 C 122.140 232.649,122.590 231.833,122.538 231.749 C 122.431 231.576,117.805 228.958,117.414 228.848 C 117.274 228.810,116.749 229.391,116.245 230.141 C 113.924 233.600,110.269 234.375,107.652 231.962 C 104.600 229.150,104.559 218.613,107.589 215.859 C 110.183 213.503,114.233 214.536,116.003 218.006 C 116.251 218.492,116.575 218.889,116.723 218.889 C 116.951 218.889,122.158 216.921,122.424 216.735 C 122.473 216.700,122.140 215.914,121.682 214.988 C 119.493 210.557,114.725 208.249,109.111 208.903 M172.556 208.818 C 170.523 209.061,168.020 210.089,165.880 211.562 C 164.627 212.423,164.667 212.449,164.667 210.778 L 164.667 209.333 161.444 209.333 L 158.222 209.333 158.222 224.000 L 158.222 238.667 161.778 238.667 L 165.333 238.667 165.333 228.137 L 165.333 217.607 166.214 216.811 C 169.153 214.157,173.223 213.897,174.498 216.282 C 174.996 217.215,175.000 217.300,175.067 227.944 L 175.135 238.667 178.691 238.667 L 182.248 238.667 182.165 227.278 C 182.076 215.129,182.061 214.958,180.921 212.728 C 179.535 210.017,176.071 208.398,172.556 208.818 M197.556 208.896 C 190.891 209.685,186.901 215.308,186.892 223.925 C 186.881 233.519,191.504 239.111,199.444 239.111 C 207.515 239.111,211.886 233.764,211.888 223.889 C 211.890 213.474,206.501 207.837,197.556 208.896 M240.667 208.894 C 234.233 209.665,230.392 214.715,230.066 222.833 C 229.652 233.122,234.247 239.111,242.556 239.111 C 250.837 239.111,255.457 233.089,255.045 222.833 C 254.658 213.206,249.160 207.876,240.667 208.894 M267.727 208.899 C 259.056 209.909,255.096 219.157,260.729 225.242 L 261.975 226.587 260.765 227.460 C 256.977 230.195,256.921 233.931,260.638 235.964 L 261.804 236.602 260.780 236.888 C 256.644 238.046,255.592 243.328,258.902 246.318 C 262.622 249.679,273.013 250.184,278.766 247.282 C 281.848 245.728,283.453 243.101,283.282 239.889 C 283.020 234.983,280.163 233.229,271.512 232.663 C 266.004 232.303,264.444 231.842,264.444 230.574 C 264.444 229.428,265.964 228.905,269.333 228.890 C 274.761 228.867,278.584 226.820,280.029 223.166 C 280.825 221.152,280.781 217.482,279.939 215.683 C 279.169 214.040,279.254 213.948,281.662 213.821 L 283.556 213.722 283.556 211.166 L 283.556 208.609 282.167 208.758 C 280.012 208.989,278.627 209.468,277.620 210.329 L 276.697 211.120 275.293 210.354 C 272.895 209.047,270.467 208.580,267.727 208.899 M311.556 208.893 C 305.070 209.668,301.189 214.651,300.754 222.763 C 300.416 229.075,302.549 234.645,306.269 237.167 C 311.507 240.718,320.303 239.412,324.242 234.499 C 325.324 233.149,325.270 233.047,322.556 231.333 L 320.112 229.790 318.889 230.984 C 314.141 235.620,308.685 233.344,307.875 226.389 L 307.727 225.111 316.419 225.111 L 325.111 225.111 325.111 222.480 C 325.111 213.450,319.606 207.932,311.556 208.893 M337.222 208.900 C 332.159 209.555,329.122 213.036,329.377 217.893 C 329.603 222.199,331.896 224.350,339.094 227.007 C 342.772 228.365,344.029 229.576,343.561 231.312 C 342.654 234.683,337.815 234.560,334.413 231.080 L 332.937 229.571 330.573 231.351 L 328.209 233.131 328.938 234.149 C 333.713 240.820,346.174 240.830,349.246 234.166 C 349.828 232.903,349.886 232.556,349.888 230.329 C 349.890 225.305,347.924 223.234,340.597 220.539 C 336.296 218.957,335.122 217.869,335.798 216.092 C 336.779 213.517,340.649 213.540,343.539 216.139 C 344.889 217.352,344.569 217.429,347.024 215.301 C 349.445 213.202,349.442 213.211,348.056 212.007 C 345.387 209.690,340.952 208.418,337.222 208.900 M288.222 224.000 L 288.222 238.667 291.778 238.667 L 295.333 238.667 295.333 224.000 L 295.333 209.333 291.778 209.333 L 288.222 209.333 288.222 224.000 M84.556 214.644 C 86.268 215.439,87.349 217.007,87.671 219.167 L 87.828 220.222 82.359 220.222 C 79.350 220.222,76.889 220.177,76.889 220.122 C 76.889 215.934,81.002 212.995,84.556 214.644 M271.576 214.739 C 274.461 216.262,274.858 220.198,272.349 222.401 C 269.646 224.774,265.173 223.019,264.746 219.418 C 264.308 215.720,268.280 212.999,271.576 214.739 M315.444 214.644 C 317.051 215.387,318.201 217.102,318.553 219.278 L 318.706 220.222 313.222 220.222 L 307.739 220.222 307.891 219.278 C 308.408 216.087,310.367 214.232,313.222 214.232 C 314.052 214.232,314.891 214.387,315.444 214.644 M201.798 215.181 C 204.389 216.541,205.719 222.823,204.568 228.254 C 203.102 235.174,195.787 235.174,194.321 228.254 C 192.756 220.871,195.095 214.667,199.444 214.667 C 200.451 214.667,201.081 214.804,201.798 215.181 M244.823 215.133 C 248.686 217.003,249.345 228.861,245.767 232.094 C 243.253 234.366,239.441 233.443,238.030 230.222 C 236.479 226.681,236.839 219.252,238.693 216.527 C 239.913 214.734,242.693 214.102,244.823 215.133 M271.162 238.207 C 279.752 239.315,277.790 245.024,269.055 244.341 C 265.284 244.046,263.554 243.122,263.557 241.406 C 263.562 238.776,266.379 237.591,271.162 238.207 " stroke="none" fill="#040404" fill-rule="evenodd"></path><path id="path2" d="" stroke="none" fill="#d0081c" fill-rule="evenodd"></path><path id="path3" d="" stroke="none" fill="#38081c" fill-rule="evenodd"></path><path id="path4" d="" stroke="none" fill="#040820" fill-rule="evenodd"></path></g></svg>